<?xml version="1.0" encoding="UTF-8"?>
<!-- Generated by @neplex/vectorizer (Using visioncortex VTracer) -->
<svg version="1.1" xmlns="http://www.w3.org/2000/svg" width="1207" height="902">
<path d="M0 0 C6.19 0.01 12.38 0.01 18.56 -0 C104.63 -0.14 190.51 2.23 634.53 133.09 C722.64 222.79 754.28 359.05 762.34 559.8 C762.33 563.76 762.34 567.72 762.35 571.69 C762.69 698.32 746.43 828.59 634.53 994.43 C578.86 1049.63 494.24 1073.19 15.91 1127.52 C9.72 1127.51 3.54 1127.51 -2.65 1127.52 C-88.72 1127.66 -174.6 1125.29 -618.62 994.43 C-706.73 904.73 -738.37 768.47 -746.43 567.72 C-746.42 563.76 -746.43 559.8 -746.44 555.83 C-746.78 429.19 -730.51 298.93 -618.62 133.09 C-562.94 77.88 -478.33 54.33 0 0 Z " fill="#111B2F" transform="translate(595.5438224348472,-112.75929040822666)"/>
<path d="M0 0 C1.37 -0 1.37 -0 2.77 -0.01 C5.84 -0.02 8.92 -0.02 11.99 -0.02 C14.19 -0.03 16.39 -0.03 18.59 -0.04 C24.57 -0.05 30.56 -0.06 36.54 -0.06 C40.28 -0.06 44.01 -0.07 47.75 -0.07 C59.43 -0.08 71.11 -0.09 82.79 -0.1 C84.13 -0.1 85.48 -0.1 86.82 -0.1 C87.49 -0.1 88.16 -0.1 88.84 -0.1 C99.65 -0.1 110.46 -0.12 121.27 -0.15 C132.37 -0.17 143.46 -0.18 154.56 -0.18 C160.79 -0.18 167.02 -0.19 173.25 -0.21 C179.11 -0.22 184.97 -0.23 190.82 -0.22 C192.98 -0.22 195.13 -0.22 197.28 -0.23 C200.22 -0.24 203.15 -0.24 206.08 -0.23 C206.94 -0.24 207.79 -0.24 208.67 -0.25 C213.33 -0.21 216.42 0.09 220.17 3.14 C223.27 6.47 223.55 8.79 223.55 13.28 C223.56 14.55 223.57 15.82 223.57 17.13 C223.57 18.54 223.56 19.95 223.56 21.36 C223.56 22.86 223.57 24.35 223.57 25.85 C223.59 29.97 223.58 34.09 223.58 38.21 C223.57 42.64 223.58 47.08 223.59 51.52 C223.61 60.22 223.61 68.92 223.61 77.62 C223.6 84.69 223.6 91.76 223.61 98.83 C223.61 99.83 223.61 100.84 223.61 101.87 C223.61 103.92 223.61 105.96 223.62 108 C223.63 127.16 223.62 146.32 223.61 165.48 C223.6 183.02 223.62 200.55 223.64 218.09 C223.66 236.09 223.67 254.08 223.67 272.08 C223.66 282.19 223.67 292.29 223.68 302.4 C223.7 311.01 223.7 319.61 223.68 328.22 C223.67 332.61 223.67 337 223.69 341.39 C223.7 345.41 223.7 349.43 223.68 353.45 C223.67 354.9 223.68 356.36 223.69 357.81 C223.7 359.79 223.68 361.77 223.67 363.74 C223.67 364.84 223.67 365.94 223.67 367.07 C223.04 370.96 221.64 373.1 219.17 376.14 C215.18 378.85 210.89 378.42 206.22 378.41 C204.85 378.41 204.85 378.41 203.46 378.42 C200.39 378.43 197.32 378.43 194.25 378.43 C192.05 378.44 189.85 378.44 187.65 378.45 C181.68 378.47 175.7 378.47 169.73 378.47 C164.74 378.48 159.76 378.48 154.77 378.49 C143.69 378.51 132.6 378.51 121.51 378.51 C120.84 378.51 120.18 378.51 119.49 378.51 C118.83 378.51 118.16 378.51 117.48 378.51 C106.68 378.51 95.89 378.53 85.09 378.56 C74.01 378.59 62.92 378.6 51.83 378.6 C45.61 378.6 39.39 378.6 33.16 378.62 C27.31 378.64 21.46 378.64 15.61 378.63 C13.46 378.63 11.31 378.63 9.16 378.64 C6.23 378.66 3.3 378.65 0.37 378.63 C-0.48 378.65 -1.34 378.66 -2.21 378.67 C-7.53 378.6 -10.67 377.76 -14.83 374.14 C-17.02 370.77 -17.08 367.96 -17.09 364 C-17.1 362.73 -17.11 361.46 -17.11 360.15 C-17.11 358.74 -17.11 357.33 -17.11 355.92 C-17.11 354.42 -17.11 352.93 -17.12 351.43 C-17.14 347.31 -17.14 343.19 -17.14 339.08 C-17.14 334.64 -17.15 330.2 -17.16 325.76 C-17.19 316.05 -17.19 306.34 -17.2 296.63 C-17.2 290.57 -17.21 284.51 -17.22 278.45 C-17.24 261.68 -17.25 244.91 -17.25 228.13 C-17.25 227.06 -17.25 225.99 -17.25 224.88 C-17.26 222.71 -17.26 220.53 -17.26 218.35 C-17.26 217.27 -17.26 216.19 -17.26 215.08 C-17.26 214 -17.26 212.91 -17.26 211.8 C-17.26 194.26 -17.29 176.73 -17.33 159.19 C-17.36 141.19 -17.38 123.2 -17.38 105.2 C-17.38 95.09 -17.39 84.99 -17.42 74.88 C-17.45 66.27 -17.45 57.67 -17.44 49.06 C-17.43 44.67 -17.43 40.28 -17.45 35.89 C-17.47 31.87 -17.47 27.85 -17.45 23.83 C-17.45 22.38 -17.45 20.92 -17.47 19.47 C-17.58 7.24 -17.58 7.24 -14.48 3.3 C-9.92 -0.42 -5.62 -0.01 0 0 Z " fill="#131F34" transform="translate(54.831024169921875,80.85955810546875)"/>
<path d="M0 0 C0.86 -0.01 1.72 -0.01 2.61 -0.02 C5.5 -0.03 8.39 -0.01 11.28 0.01 C13.35 0 15.42 -0 17.49 -0.01 C23.12 -0.02 28.75 -0.01 34.37 0.02 C40.26 0.04 46.14 0.03 52.03 0.03 C61.91 0.03 71.79 0.05 81.67 0.08 C93.1 0.12 104.53 0.13 115.96 0.12 C126.95 0.11 137.94 0.12 148.93 0.14 C153.61 0.15 158.29 0.15 162.97 0.15 C168.48 0.15 173.99 0.16 179.5 0.19 C181.52 0.2 183.54 0.2 185.57 0.2 C188.33 0.19 191.08 0.21 193.84 0.23 C194.65 0.22 195.45 0.22 196.28 0.21 C200.82 0.27 203.82 0.78 207.42 3.62 C209.52 7.82 208.65 13.32 208.67 17.93 C208.7 19.65 208.7 19.65 208.73 21.39 C208.74 23.05 208.74 23.05 208.75 24.73 C208.76 25.74 208.77 26.75 208.78 27.79 C208.36 31.11 207.44 32.97 205.42 35.62 C201.61 36.89 198.04 36.77 194.08 36.76 C192.79 36.77 192.79 36.77 191.47 36.77 C188.57 36.78 185.67 36.78 182.78 36.78 C180.7 36.79 178.63 36.79 176.56 36.8 C170.92 36.81 165.28 36.82 159.64 36.82 C156.12 36.82 152.6 36.83 149.08 36.83 C138.08 36.85 127.07 36.86 116.07 36.86 C103.35 36.86 90.63 36.88 77.91 36.91 C68.09 36.93 58.26 36.94 48.44 36.94 C42.57 36.95 36.7 36.95 30.83 36.97 C25.31 36.99 19.79 36.99 14.27 36.98 C12.24 36.98 10.21 36.98 8.18 36.99 C5.42 37.01 2.66 37 -0.11 36.99 C-1.32 37 -1.32 37 -2.55 37.01 C-5.8 36.98 -8.16 36.85 -11.04 35.29 C-15.08 30.9 -13.88 23.82 -13.95 18.25 C-13.99 17.11 -14.03 15.97 -14.07 14.8 C-14.08 13.7 -14.09 12.6 -14.1 11.47 C-14.12 10.47 -14.14 9.47 -14.16 8.44 C-12.59 0.83 -6.78 -0.11 0 0 Z " fill="#6166E7" transform="translate(60.5780029296875,377.3785400390625)"/>
<path d="M0 0 C1.35 -0 2.7 -0.01 4.06 -0.02 C7.72 -0.03 11.39 -0.01 15.05 0.01 C18.89 0.03 22.73 0.02 26.57 0.02 C33.01 0.02 39.46 0.04 45.91 0.07 C53.36 0.11 60.8 0.12 68.25 0.11 C75.42 0.11 82.59 0.12 89.76 0.14 C92.81 0.14 95.86 0.15 98.91 0.15 C102.5 0.14 106.09 0.16 109.69 0.18 C111.63 0.2 113.58 0.19 115.52 0.19 C116.68 0.2 117.84 0.21 119.04 0.22 C120.55 0.23 120.55 0.23 122.09 0.23 C125.32 0.68 127.22 1.7 129.84 3.62 C133.5 10.92 133.81 21.07 132.22 28.93 C130.84 31.62 130.84 31.62 128.32 33.18 C119.41 35.72 109.94 35.3 100.76 35.11 C96.58 35.04 92.4 35.1 88.23 35.14 C81.21 35.19 74.2 35.13 67.18 35 C59.05 34.86 50.94 34.91 42.81 35.05 C35.85 35.17 28.89 35.19 21.93 35.12 C17.76 35.08 13.6 35.07 9.44 35.16 C-11.72 35.54 -11.72 35.54 -18.16 31.62 C-21.99 24.59 -20.77 15.94 -19.04 8.41 C-15.99 -1.21 -8.7 -0.09 0 0 Z " fill="#6F72E9" transform="translate(958.15625,870.384765625)"/>
<path d="M0 0 C1.09 -0.01 2.17 -0.01 3.29 -0.02 C6.89 -0.04 10.48 -0.03 14.08 -0.01 C16.57 -0.02 19.07 -0.02 21.57 -0.03 C26.8 -0.03 32.03 -0.02 37.26 -0 C43.31 0.02 49.35 0.01 55.4 -0.01 C61.22 -0.03 67.04 -0.03 72.86 -0.02 C75.34 -0.02 77.81 -0.02 80.29 -0.03 C83.74 -0.04 87.2 -0.02 90.66 0 C91.68 -0.01 92.71 -0.02 93.77 -0.02 C100.67 0.06 100.67 0.06 103.96 2.35 C105.89 5.41 105.85 7.73 105.86 11.33 C105.87 12.31 105.87 12.31 105.87 13.3 C105.87 14.67 105.87 16.05 105.85 17.42 C105.83 19.51 105.85 21.6 105.88 23.7 C105.87 25.03 105.87 26.37 105.86 27.71 C105.85 28.92 105.85 30.13 105.85 31.37 C105.33 34.52 105.33 34.52 103.96 36.68 C99.79 39.59 95.63 39.08 90.66 39.05 C89.57 39.06 88.48 39.07 87.36 39.08 C83.77 39.1 80.17 39.09 76.58 39.08 C74.08 39.09 71.59 39.1 69.09 39.1 C63.86 39.11 58.63 39.11 53.39 39.09 C47.35 39.08 41.3 39.09 35.26 39.13 C29.44 39.16 23.62 39.16 17.8 39.15 C15.32 39.15 12.85 39.15 10.37 39.17 C6.91 39.19 3.46 39.17 0 39.15 C-1.03 39.16 -2.05 39.17 -3.11 39.18 C-10.03 39.09 -10.03 39.09 -13.31 36.18 C-15 32.87 -15.19 30.54 -15.2 26.83 C-15.21 25.55 -15.21 24.28 -15.22 22.96 C-15.21 22.31 -15.2 21.65 -15.19 20.97 C-15.17 18.96 -15.19 16.95 -15.22 14.93 C-15.21 13.66 -15.21 12.39 -15.2 11.08 C-15.2 9.91 -15.19 8.75 -15.19 7.55 C-14.67 4.52 -14.67 4.52 -13.31 2.36 C-9.13 -0.56 -4.97 -0.04 0 0 Z " fill="#212C41" transform="translate(1008.671875,85.482421875)"/>
<path d="M0 0 C0.99 0.33 1.98 0.66 3 1 C1.81 2.56 1.81 2.56 0 4 C-0.66 4 -1.32 4 -2 4 C-1.31 1.94 -1.31 1.94 0 0 Z M-4 2 C-2.56 3.69 -2.56 3.69 -2 6 C-2.66 6 -3.32 6 -4 6 C-4.33 6.99 -4.66 7.98 -5 9 C-5.83 9.74 -6.65 10.48 -7.5 11.25 C-8 11.83 -8.49 12.41 -9 13 C-5.64 12.97 -5.64 12.97 -2 12 C-2 11.34 -2 10.68 -2 10 C-1.26 9.88 -0.51 9.75 0.25 9.62 C3.59 8.87 4.67 7.41 7 5 C7.66 5.33 8.32 5.66 9 6 C8.67 6.66 8.34 7.32 8 8 C8.66 8 9.32 8 10 8 C10 7.34 10 6.68 10 6 C10.66 6.33 11.32 6.66 12 7 C11 9 11 9 10 10 C11.18 10 12.35 10 13.56 10 C14.7 10 15.83 10 17 10 C16.34 10.33 15.68 10.66 15 11 C15 11.66 15 12.32 15 13 C13 13.33 11 13.67 9 14 C9 14.66 9 15.32 9 16 C7.33 19.67 7.33 19.67 6 21 C7.82 21.93 7.82 21.93 10 22 C11.15 20.03 11.15 20.03 12 18 C12.66 18.33 13.32 18.66 14 19 C13.11 19.95 12.23 20.9 11.31 21.88 C10.55 22.91 9.79 23.94 9 25 C11.09 27.17 11.09 27.17 14 28 C14 27.34 14 26.68 14 26 C14.66 26.33 15.32 26.66 16 27 C15.67 27.66 15.34 28.32 15 29 C13.15 29.12 13.15 29.12 10.94 29 C9.64 29 8.34 29 7 29 C7 29.66 7 30.32 7 31 C6.01 31 5.02 31 4 31 C3.5 31.54 3.01 32.07 2.5 32.62 C2 33.08 1.51 33.53 1 34 C0.01 33.34 -0.98 32.68 -2 32 C-0.91 30.27 -0.91 30.27 0.94 28.38 C1.99 27.28 3.03 26.16 4 25 C3.34 25 2.68 25 2 25 C2 24.34 2 23.68 2 23 C1.01 23 0.02 23 -1 23 C-1 23.66 -1 24.32 -1 25 C-1.66 25 -2.32 25 -3 25 C-3.33 25.66 -3.66 26.32 -4 27 C-4.66 27 -5.32 27 -6 27 C-6 26.34 -6 25.68 -6 25 C-6.66 25 -7.32 25 -8 25 C-8 24.34 -8 23.68 -8 23 C-10.44 21.69 -10.44 21.69 -13 21 C-13 21.66 -13 22.32 -13 23 C-15.5 23.06 -15.5 23.06 -18 22 C-18.19 18.44 -18.19 18.44 -18 15 C-18.66 15 -19.32 15 -20 15 C-19.69 11.56 -19.69 11.56 -18 8 C-15.71 7.41 -13.62 7.37 -11.26 7.32 C-8.55 6.94 -7.81 6.22 -6.06 4.19 C-5.38 3.47 -4.7 2.74 -4 2 Z M7 11 C7.33 11.66 7.66 12.32 8 13 C8.33 12.34 8.66 11.68 9 11 C8.34 11 7.68 11 7 11 Z M3.56 14.38 C3.05 14.91 2.53 15.45 2 16 C0.51 16.99 0.51 16.99 -1 18 C2.33 18.58 2.33 18.58 6 18 C7.24 15.57 7.24 15.57 7 13 C4.91 12.77 4.91 12.77 3.56 14.38 Z " fill="#151A30" transform="translate(639,100)"/>
<path d="M0 0 C0.99 0.33 1.98 0.66 3 1 C1.81 2.56 1.81 2.56 0 4 C-0.66 4 -1.32 4 -2 4 C-1.31 1.94 -1.31 1.94 0 0 Z M-4 2 C-2.56 3.69 -2.56 3.69 -2 6 C-2.66 6 -3.32 6 -4 6 C-4.33 6.99 -4.66 7.98 -5 9 C-5.78 9.72 -6.57 10.44 -7.38 11.19 C-7.91 11.79 -8.45 12.38 -9 13 C-6.75 13.17 -6.75 13.17 -4 13 C-2 15 -2 15 -1.75 18 C-2 21 -2 21 -4 23 C-8.05 23.34 -9.55 23.3 -13 21 C-13 21.66 -13 22.32 -13 23 C-15.5 23.06 -15.5 23.06 -18 22 C-18.19 18.44 -18.19 18.44 -18 15 C-18.66 15 -19.32 15 -20 15 C-19.69 11.56 -19.69 11.56 -18 8 C-15.71 7.41 -13.62 7.37 -11.26 7.32 C-8.55 6.94 -7.81 6.22 -6.06 4.19 C-5.38 3.47 -4.7 2.74 -4 2 Z " fill="#717883" transform="translate(639,100)"/>
<path d="M0 0 C1.32 0 2.64 0 4 0 C5.19 2.62 5.19 2.62 6 5 C6.33 4.34 6.66 3.68 7 3 C10.5 2.81 10.5 2.81 14 3 C15 4 15 4 15.38 6.5 C15.25 7.32 15.13 8.15 15 9 C12.5 9.62 12.5 9.62 10 10 C10 10.99 10 11.98 10 13 C9.01 13 8.02 13 7 13 C7 12.01 7 11.02 7 10 C6.01 10 5.02 10 4 10 C4 9.34 4 8.68 4 8 C2.68 8 1.36 8 0 8 C0 8.66 0 9.32 0 10 C-4.05 10.69 -7.96 10.78 -12 10 C-13.31 6.62 -13.31 6.62 -13 3 C-12.67 2.34 -12.34 1.68 -12 1 C-11.34 1 -10.68 1 -10 1 C-8.94 4.18 -9.23 4.94 -10 8 C-9.34 7.67 -8.68 7.34 -8 7 C-7.88 6.32 -7.75 5.64 -7.62 4.94 C-7.42 4.3 -7.21 3.66 -7 3 C-5.68 3 -4.36 3 -3 3 C-2.67 3.99 -2.34 4.98 -2 6 C-1.73 5.07 -1.46 4.14 -1.19 3.19 C-0.8 2.14 -0.4 1.08 0 0 Z " fill="#888E99" transform="translate(101,319)"/>
<path d="M0 0 C0.66 0 1.32 0 2 0 C2.66 0.99 3.32 1.98 4 3 C4.33 2.01 4.66 1.02 5 0 C5.99 0 6.98 0 8 0 C8.33 0.66 8.66 1.32 9 2 C9.33 1.34 9.66 0.68 10 0 C13.06 -0.31 13.06 -0.31 16 0 C16 0.99 16 1.98 16 3 C18.44 3.67 18.44 3.67 21 4 C21.33 4.33 21.66 4.66 22 5 C22 4.34 22 3.68 22 3 C24.44 2.81 24.44 2.81 27 3 C28 4 28 4 28.69 7.06 C28.46 8.03 28.23 9 28 10 C24.62 10.86 21.33 11.07 18 10 C17.81 7.46 17.81 7.46 18 5 C17.34 5 16.68 5 16 5 C16.02 5.82 16.04 6.65 16.06 7.5 C16.04 8.32 16.02 9.15 16 10 C15.01 10 14.02 10 13 10 C12.67 9.34 12.34 8.68 12 8 C11.67 8.66 11.34 9.32 11 10 C10.01 10 9.02 10 8 10 C7.33 8.67 6.67 7.33 6 6 C5.88 6.6 5.75 7.2 5.62 7.81 C5.42 8.53 5.21 9.26 5 10 C3.02 9.92 3.02 9.92 1 9 C0.32 6.93 0.32 6.93 0.12 4.44 C0.05 3.61 -0.03 2.78 -0.12 1.93 C-0.08 1.3 -0.04 0.66 0 0 Z " fill="#8D939D" transform="translate(59,319)"/>
<path d="M0 0 C0.99 0 1.98 0 3 0 C3.37 1.99 3.7 3.99 4 6 C4.66 5.67 5.32 5.34 6 5 C5.34 5 4.68 5 4 5 C4 4.34 4 3.68 4 3 C6.44 2.56 6.44 2.56 9 3 C9.62 5.5 9.62 5.5 10 8 C10.99 8 11.98 8 13 8 C13.67 6.06 13.67 6.06 14 4 C15 3 15 3 17.47 2.87 C18.97 2.87 18.97 2.87 20.5 2.88 C21.5 2.87 22.5 2.87 23.53 2.87 C26 3 26 3 27 4 C27.12 6.5 27.12 6.5 27 9 C26 10 26 10 23.5 10.38 C22.68 10.25 21.85 10.13 21 10 C20.63 8.34 20.29 6.67 20 5 C18.68 5 17.36 5 16 5 C16 5.99 16 6.98 16 8 C16.99 8 17.98 8 19 8 C19 8.66 19 9.32 19 10 C15.22 10.52 11.37 10.37 7.56 10.38 C6.47 10.4 5.39 10.42 4.26 10.45 C3.23 10.45 2.19 10.46 1.13 10.46 C0.17 10.47 -0.79 10.48 -1.78 10.49 C-2.51 10.33 -3.24 10.17 -4 10 C-4.95 8.16 -4.95 8.16 -5 6 C-4.34 5.01 -3.68 4.02 -3 3 C-2.01 3 -1.02 3 0 3 C0 2.01 0 1.02 0 0 Z " fill="#999EA8" transform="translate(483,429)"/>
<path d="M0 0 C1.37 0 2.75 0.02 4.12 0.04 C4.82 0.04 5.52 0.04 6.24 0.04 C11.42 0.09 11.42 0.09 12.56 1.23 C13.33 3.64 13.62 5.72 13.65 8.25 C13.29 8.91 12.93 9.56 12.56 10.23 C7.16 11.26 1.99 10.98 -3.44 10.23 C-5.44 8.23 -5.44 8.23 -5.69 5.23 C-5.32 0.8 -4.39 0.29 0 0 Z " fill="#999AA8" transform="translate(464.44140625,112.76953125)"/>
<path d="M0 0 C0.66 0 1.32 0 2 0 C2 0.99 2 1.98 2 3 C2.66 3 3.32 3 4 3 C4 2.01 4 1.02 4 0 C8.48 -0.81 13.08 -0.6 17.62 -0.62 C18.93 -0.67 20.23 -0.72 21.58 -0.76 C27.94 -0.81 27.94 -0.81 31 0 C30.96 3.55 30.96 3.55 29 7 C27.06 6.88 27.06 6.88 25 6 C24.01 6.33 23.02 6.66 22 7 C21.34 6.34 20.68 5.68 20 5 C19.67 5.66 19.34 6.32 19 7 C17.66 6.69 16.33 6.35 15 6 C14.01 6.33 13.02 6.66 12 7 C11.32 5.34 10.65 3.67 10 2 C9.88 2.74 9.75 3.49 9.62 4.25 C9.42 5.16 9.21 6.07 9 7 C7.19 6.75 7.19 6.75 5 6 C4.28 6.29 3.56 6.58 2.81 6.88 C1.92 6.94 1.92 6.94 1 7 C0.12 3.56 0.12 3.56 0 0 Z " fill="#ABAFB7" transform="translate(429,510)"/>
<path d="M0 0 C3.5 0.02 3.5 0.02 6.38 0.75 C8.04 3.59 8.05 5.27 7.69 8.52 C7.25 9.25 6.82 9.99 6.38 10.75 C1.98 11.87 -2.18 11.55 -6.62 10.75 C-8.62 8.75 -8.62 8.75 -8.88 5.75 C-8.4 0.01 -5.03 0.29 0 0 Z " fill="#686F7D" transform="translate(67.625,174.25)"/>
<path d="M0 0 C0.66 0 1.32 0 2 0 C2.92 3.46 3.21 6.6 2 10 C-1.72 11.27 -5.28 11.3 -9 10 C-9.22 7.44 -9.22 7.44 -9 5 C-9.66 5 -10.32 5 -11 5 C-10.86 5.83 -10.71 6.65 -10.56 7.5 C-10.78 8.74 -10.78 8.74 -11 10 C-14.02 10.57 -16.96 10.4 -20 10 C-21 9 -21 9 -21.12 6.5 C-21 4 -21 4 -20 3 C-18.56 2.9 -17.12 2.87 -15.68 2.87 C-14.38 2.87 -14.38 2.87 -13.06 2.86 C-12.15 2.87 -11.25 2.87 -10.31 2.88 C-9.39 2.87 -8.48 2.87 -7.53 2.86 C-5.35 2.87 -3.18 2.93 -1 3 C-1.99 3.5 -1.99 3.5 -3 4 C-3 5.32 -3 6.64 -3 8 C-2.01 8 -1.02 8 0 8 C0.29 6.17 0.29 6.17 0.06 4 C-0.09 1.75 -0.09 1.75 0 0 Z " fill="#898F9A" transform="translate(98,103)"/>
<path d="M0 0 C1.32 0 2.64 0 4 0 C4.74 2.31 5.41 4.65 6 7 C6.66 7 7.32 7 8 7 C8.29 5.84 8.58 4.69 8.88 3.5 C9.25 2.34 9.62 1.19 10 0 C11.32 0 12.64 0 14 0 C14.5 2.84 14.5 2.84 14.44 6.5 C14.44 7.71 14.43 8.91 14.43 10.16 C14.29 11.09 14.15 12.03 14 13 C13.01 13 12.02 13 11 13 C10.67 11.33 10.33 9.67 10 8 C9.57 9.11 9.57 9.11 9.12 10.25 C8.75 11.16 8.38 12.06 8 13 C7.01 12.67 6.02 12.34 5 12 C4.67 11.01 4.34 10.02 4 9 C3.88 9.6 3.75 10.2 3.62 10.81 C3.42 11.53 3.21 12.26 3 13 C2.01 13 1.02 13 0 13 C-0.43 10.16 -0.43 10.16 -0.44 6.5 C-0.46 5.29 -0.48 4.09 -0.5 2.84 C-0.33 1.91 -0.17 0.97 0 0 Z " fill="#CCCECA" transform="translate(89,37)"/>
<path d="M0 0 C2.48 0.01 2.48 0.01 4.44 0.38 C4.88 2.88 4.88 2.88 4.44 5.38 C5.1 5.38 5.76 5.38 6.44 5.38 C6.29 4.55 6.15 3.72 6 2.88 C6.14 2.05 6.29 1.22 6.44 0.38 C9.46 -0.23 12.41 -0.2 15.44 0.38 C15.44 1.03 15.44 1.69 15.44 2.38 C15.11 2.71 14.78 3.03 14.44 3.38 C14.44 4.69 14.44 6.01 14.44 7.38 C12.71 7.84 12.71 7.84 10.32 7.8 C9.46 7.79 8.61 7.78 7.73 7.78 C6.38 7.73 6.38 7.73 5 7.69 C4.1 7.68 3.2 7.67 2.28 7.66 C-4.4 7.54 -4.4 7.54 -5.56 6.38 C-5.69 3.88 -5.69 3.88 -5.56 1.38 C-3.95 -0.23 -2.21 0.09 0 0 Z " fill="#858B96" transform="translate(77.5625,141.625)"/>
<path d="M0 0 C1.92 0.43 1.92 0.43 3.88 0.88 C4.87 4.93 4.68 8.79 3.88 12.88 C2.56 14.74 2.56 14.74 0.88 15.88 C-2.81 16.25 -2.81 16.25 -6.12 15.88 C-6.12 14.89 -6.12 13.89 -6.12 12.88 C-4.13 12.83 -2.12 12.83 -0.12 12.88 C-0.12 12.22 -0.12 11.56 -0.12 10.88 C-1.79 10.83 -3.46 10.83 -5.12 10.88 C-6.12 9.88 -6.12 9.88 -6.31 6.44 C-6.06 1.59 -4.59 0.54 0 0 Z " fill="#B2B5BC" transform="translate(374.125,112.125)"/>
<path d="M0 0 C1.92 0.43 1.92 0.43 3.88 0.88 C4.87 4.93 4.68 8.79 3.88 12.88 C2.56 14.74 2.56 14.74 0.88 15.88 C-2.81 16.25 -2.81 16.25 -6.12 15.88 C-6.12 14.89 -6.12 13.89 -6.12 12.88 C-4.13 12.83 -2.12 12.83 -0.12 12.88 C-0.12 12.22 -0.12 11.56 -0.12 10.88 C-0.93 10.88 -1.73 10.88 -2.56 10.88 C-3.41 10.88 -4.25 10.88 -5.12 10.88 C-6.51 8.11 -6.32 5.93 -6.12 2.88 C-3.89 0.64 -3.06 0.36 0 0 Z " fill="#B1B4B8" transform="translate(529.125,112.125)"/>
<path d="M0 0 C1.19 0 2.37 0.01 3.59 0.01 C4.78 0.01 5.97 0 7.19 0 C10.09 0.13 10.09 0.13 11.09 1.13 C11.53 4.2 11.53 4.2 11.09 7.13 C8.28 7.32 8.28 7.32 5.09 7.13 C4.6 7.63 4.1 8.12 3.59 8.63 C2.09 10.13 2.09 10.13 -1.09 10.57 C-2.02 10.43 -2.95 10.28 -3.91 10.13 C-3.91 8.81 -3.91 7.49 -3.91 6.13 C-3.93 5.25 -3.95 4.36 -3.97 3.45 C-3.87 -0.03 -3.51 0.16 0 0 Z " fill="#818793" transform="translate(104.90625,357.8671875)"/>
<path d="M0 0 C1.32 0 2.64 0 4 0 C4.67 1.66 5.34 3.33 6 5 C6.99 4.34 7.98 3.68 9 3 C9.99 3.33 10.98 3.66 12 4 C11.34 4 10.68 4 10 4 C10 5.32 10 6.64 10 8 C10.99 8 11.98 8 13 8 C13.04 6.33 13.04 4.67 13 3 C13.66 3 14.32 3 15 3 C15.35 8.43 15.35 8.43 15 11 C13 13 13 13 10.44 13.31 C9.23 13.16 9.23 13.16 8 13 C7.67 12.01 7.34 11.02 7 10 C6.01 10 5.02 10 4 10 C4 9.34 4 8.68 4 8 C2.68 8 1.36 8 0 8 C0 8.66 0 9.32 0 10 C-0.99 9.67 -1.98 9.34 -3 9 C-2.78 6.93 -2.78 6.93 -1.94 4.44 C-1.55 3.2 -1.55 3.2 -1.15 1.93 C-0.58 0.98 -0.58 0.98 0 0 Z " fill="#8C929D" transform="translate(61,103)"/>
<path d="M0 0 C4.36 -0.8 8.62 -0.68 13 0 C13 0.66 13 1.32 13 2 C12.67 2.33 12.34 2.66 12 3 C12.66 2.67 13.32 2.34 14 2 C14 1.34 14 0.68 14 0 C16.44 -0.19 16.44 -0.19 19 0 C20 1 20 1 20.56 4.02 C20.38 5 20.19 5.99 20 7 C17.03 7.65 14.97 7.8 12 7.69 C11.24 7.7 10.47 7.72 9.69 7.73 C7.5 7.7 7.5 7.7 4 7 C3.62 4.46 3.62 4.46 4 2 C3.34 2 2.68 2 2 2 C2 2.82 2 3.65 2 4.5 C2 5.32 2 6.15 2 7 C1.34 7 0.68 7 0 7 C-0.94 3.5 -0.94 3.5 0 0 Z " fill="#8D929D" transform="translate(80,358)"/>
<path d="M0 0 C3.85 0 3.85 0 6.94 0.56 C8.24 2.8 7.99 4.09 7.62 6.62 C6.94 8.56 6.94 8.56 4.94 10.56 C2.38 10.94 2.38 10.94 -0.06 10.56 C-0.81 8.5 -0.81 8.5 -1.06 6.56 C-1.39 6.89 -1.72 7.22 -2.06 7.56 C-4.56 7.69 -4.56 7.69 -7.06 7.56 C-8.06 6.56 -8.06 6.56 -8.19 4.06 C-7.94 -0.94 -4.32 0.2 0 0 Z " fill="#828A8F" transform="translate(439.0625,299.4375)"/>
<path d="M0 0 C3.08 -1.61 5.76 -0.98 9 0 C10 1 10 1 10.19 4.44 C10 8 10 8 8 10 C6.7 9.91 6.7 9.91 5.38 9.81 C4.2 9.91 4.2 9.91 3 10 C2.83 12.5 2.83 12.5 3 15 C2.01 15 1.02 15 0 15 C-0.94 9.92 -1.06 5.06 0 0 Z " fill="#A9B2BE" transform="translate(413,113)"/>
<path d="M0 0 C0.99 0 1.98 0 3 0 C3.1 0.8 3.21 1.61 3.31 2.44 C3.54 3.28 3.77 4.13 4 5 C5.01 5.12 6.02 5.25 7.06 5.38 C8.03 5.58 9 5.79 10 6 C10.5 9.44 10.5 9.44 10 13 C7.35 15.65 5.41 16.06 1.72 16.07 C1.15 15.71 0.59 15.36 0 15 C-0.5 12.33 -0.71 10.18 -0.69 7.5 C-0.68 6.79 -0.68 6.07 -0.67 5.34 C-0.57 3.28 -0.57 3.28 0 0 Z " fill="#AEB4BE" transform="translate(437,108)"/>
<path d="M0 0 C2.94 -0.94 2.94 -0.94 6 0 C6.81 2.56 6.81 2.56 7 5 C7.33 4.67 7.66 4.34 8 4 C11 3.38 11 3.38 14 3 C15 4 15 4 15.62 7.06 C15.42 8.03 15.21 9 15 10 C11.96 10.77 9.04 10.74 6 10 C5.67 9.01 5.34 8.02 5 7 C4.34 7 3.68 7 3 7 C3 7.99 3 8.98 3 10 C2.01 10 1.02 10 0 10 C-0.78 6.64 -0.75 3.37 0 0 Z " fill="#878D98" transform="translate(59,211)"/>
<path d="M0 0 C0.99 0 1.98 0 3 0 C3.35 1.33 3.69 2.66 4 4 C4.66 3.34 5.32 2.68 6 2 C8.62 2.19 8.62 2.19 11 3 C11 3.99 11 4.98 11 6 C9.67 6.34 8.34 6.68 7 7 C7.99 7.66 8.98 8.32 10 9 C7.67 9.31 5.53 9.42 3.19 9.44 C2.51 9.47 1.82 9.5 1.12 9.54 C-0.83 9.56 -0.83 9.56 -4 9 C-4.32 6.47 -4.32 6.47 -4 4 C-4.66 4 -5.32 4 -6 4 C-6 4.82 -6 5.65 -6 6.5 C-6 7.32 -6 8.15 -6 9 C-6.66 9 -7.32 9 -8 9 C-8.56 5.5 -8.56 5.5 -8 2 C-4.56 1.69 -4.56 1.69 -1 2 C-0.67 1.34 -0.34 0.68 0 0 Z " fill="#8F959F" transform="translate(91,176)"/>
<path d="M0 0 C4.57 0.57 4.57 0.57 6 2 C6.33 1.34 6.66 0.68 7 0 C9.56 -0.44 9.56 -0.44 12 0 C12.25 2.25 12.25 2.25 12 5 C12.21 5.74 12.41 6.49 12.62 7.25 C12.75 7.83 12.87 8.4 13 9 C10.23 10.39 7.84 10.24 4.75 10.31 C3.63 10.35 2.51 10.39 1.36 10.43 C0.58 10.29 -0.2 10.14 -1 10 C-0.45 8.16 -0.45 8.16 1 6 C2.4 3.35 2.4 3.35 3 1 C1.02 1.27 1.02 1.27 -1 2 C-0.67 1.34 -0.34 0.68 0 0 Z " fill="#4C5668" transform="translate(435,831)"/>
<path d="M0 0 C0.66 0 1.32 0 2 0 C2.74 5.07 2.9 9.95 2 15 C-0.25 16.4 -1.48 16.12 -4.05 15.72 C-6 15 -6 15 -8 13 C-8.25 10 -8.25 10 -8 7 C-7.34 6.34 -6.68 5.68 -6 5 C-5.15 5.06 -4.31 5.12 -3.44 5.19 C-2.23 5.09 -2.23 5.09 -1 5 C-0.25 2.52 -0.25 2.52 0 0 Z " fill="#A8B2BA" transform="translate(565,108)"/>
<path d="M0 0 C0.66 0 1.32 0 2 0 C2.74 5.07 2.9 9.95 2 15 C-0.25 16.4 -1.48 16.12 -4.05 15.72 C-6 15 -6 15 -8 13 C-8.25 10 -8.25 10 -8 7 C-7.34 6.34 -6.68 5.68 -6 5 C-5.15 5.06 -4.31 5.12 -3.44 5.19 C-2.23 5.09 -2.23 5.09 -1 5 C-0.25 2.52 -0.25 2.52 0 0 Z " fill="#A9B2BC" transform="translate(492,108)"/>
<path d="M0 0 C0.66 0 1.32 0 2 0 C2 0.66 2 1.32 2 2 C4.42 2.17 4.42 2.17 7 2 C7.66 2 8.32 2 9 2 C9.85 1.98 10.69 1.96 11.56 1.94 C14 2 14 2 15 3 C15.12 5.5 15.12 5.5 15 8 C14 9 14 9 11.56 9.06 C10.29 9.03 10.29 9.03 9 9 C6.82 8.95 6.82 8.95 4 9.44 C3.01 9.29 2.02 9.15 1 9 C-0.44 5.62 -0.44 5.62 -1 2 C-0.67 1.34 -0.34 0.68 0 0 Z " fill="#8C919C" transform="translate(642,430)"/>
<path d="M0 0 C0.66 0 1.32 0 2 0 C2 0.66 2 1.32 2 2 C5.11 2.02 8.18 1.8 11.28 1.58 C12.18 1.72 13.07 1.86 14 2 C15 4.39 15 4.39 15 7 C12.32 9.68 10.73 9.42 7 9.56 C3.74 9.53 3.74 9.53 1 9 C-0.81 5.62 -0.81 5.62 -1 2 C-0.67 1.34 -0.34 0.68 0 0 Z " fill="#8A909B" transform="translate(441,253)"/>
</svg>
